<svg width="278" height="110" viewBox="0 0 278 110" fill="none" xmlns="http://www.w3.org/2000/svg">
<g clip-path="url(#clip0_3142_301)">
<path d="M166 24.5736V67.6119C166 70.6896 163.513 73.1846 160.446 73.1846H151.979L140.703 89.1173C139.871 90.2944 138.129 90.2944 137.296 89.1173L126.02 73.1846H117.555C114.487 73.1846 112 70.6896 112 67.6119V24.5736C112 21.4963 114.487 19 117.555 19H160.445C163.513 19 166 21.4955 166 24.5736Z" fill="#2DA6F7"/>
<path d="M166 24.5736V67.6119C166 70.6896 163.513 73.1846 160.446 73.1846H151.98L140.704 89.1173C140.287 89.7061 139.644 90 139 90V19H160.445C163.513 19 166 21.4955 166 24.5736Z" fill="#2F89F4"/>
<path d="M161.515 65.991V26.1935C161.515 24.7059 160.313 23.5 158.831 23.5L119.169 23.5C117.687 23.5 116.485 24.7059 116.485 26.1935V65.991C116.485 67.4785 117.687 68.6844 119.169 68.6844H158.831C160.313 68.6844 161.515 67.4785 161.515 65.991Z" fill="#2F89F4"/>
<path d="M158.551 25.8428H119.449C119.101 25.8428 118.819 26.1255 118.819 26.4743V65.7105C118.819 66.0593 119.101 66.342 119.449 66.342H158.551C158.898 66.342 159.18 66.0593 159.18 65.7105V26.4743C159.18 26.1255 158.898 25.8428 158.551 25.8428Z" fill="white"/>
<path d="M130.417 49.7634L121.799 61.2001C121.109 62.1156 121.76 63.4278 122.904 63.4278H140.14C141.284 63.4278 141.934 62.1156 141.244 61.2001L132.627 49.7634C132.072 49.0281 130.971 49.0281 130.417 49.7634Z" fill="#2DA6F7"/>
<path d="M155.096 63.4278H142.099C142.169 63.3284 142.232 63.2224 142.287 63.1107C142.696 62.2869 142.606 61.32 142.053 60.5861L137.286 54.2593L143.023 46.6455C143.577 45.9098 144.678 45.9098 145.233 46.6455L156.2 61.2005C156.89 62.116 156.239 63.4282 155.096 63.4282V63.4278Z" fill="#2DA6F7"/>
<path d="M128.755 40.3493C131.009 40.3493 132.837 38.5154 132.837 36.2532C132.837 33.9911 131.009 32.1572 128.755 32.1572C126.501 32.1572 124.673 33.9911 124.673 36.2532C124.673 38.5154 126.501 40.3493 128.755 40.3493Z" fill="#2DA6F7"/>
</g>
<defs>
<clipPath id="clip0_3142_301">
<rect width="54" height="71" fill="white" transform="translate(112 19)"/>
</clipPath>
</defs>
</svg>
