<svg width="308" height="408" viewBox="0 0 308 408" fill="none" xmlns="http://www.w3.org/2000/svg">
<path d="M168.727 130.098C161.447 130.962 156.593 133.122 151.757 137.694L150.589 138.774L149.331 138.162C146.329 136.722 142.733 136.146 140.343 136.704C137.862 137.298 135.723 138.846 134.141 141.241C131.049 145.867 129.467 152.51 129.97 158.846C130.258 162.464 131.301 167.199 132.397 169.809L132.667 170.493L131.948 171.231C128.766 174.525 128.263 180.844 130.833 185.218C132.181 187.486 134.752 189.412 136.801 189.682C137.233 189.736 137.592 189.88 137.628 189.988C138.114 191.788 139.174 194.885 139.767 196.217C141.799 200.825 145.16 205.307 148.935 208.368L150.481 209.628V213.768C150.481 218.196 150.283 219.781 149.582 221.023L149.205 221.689L145.753 222.571C134.644 225.397 125.674 229.429 119.472 234.38C118.681 235.01 117.243 236.306 116.291 237.242C115.32 238.16 114.529 238.88 114.529 238.826C114.529 238.772 114.259 237.764 113.918 236.594C113.594 235.424 113.055 233.138 112.731 231.535C112.21 228.979 112.066 228.511 111.617 228.043C111.131 227.521 111.077 227.503 110.017 227.611L108.92 227.737L109.046 226.963C109.208 225.991 109.783 224.677 110.916 222.805C112.192 220.663 112.498 220.015 113.63 216.918C114.205 215.388 115.571 211.95 116.686 209.286C117.783 206.622 118.735 204.065 118.789 203.615C119.221 199.889 114.906 197.981 112.156 200.663C111.779 201.023 110.736 202.445 109.837 203.813C108.92 205.181 108.165 206.28 108.129 206.244C108.093 206.208 107.86 204.209 107.608 201.797C106.386 189.862 106.44 190.24 105.954 189.232C105.397 188.062 104.462 187.378 103.222 187.252C102.017 187.144 101.137 187.486 100.202 188.404C99.7884 188.836 99.4289 189.124 99.4289 189.052C99.4289 188.98 99.3211 188.224 99.1772 187.378C98.8896 185.65 98.62 185.02 97.865 184.3C95.2944 181.852 91.1239 184.048 91.5913 187.612L91.7172 188.476L90.8902 187.9C90.2611 187.45 89.8476 187.306 89.0387 187.252C86.9894 187.108 85.4615 188.314 85.2817 190.24C85.2098 190.96 85.4615 193.409 85.8749 196.037L85.9828 196.667L85.2457 195.821C84.311 194.777 83.2863 194.345 81.9202 194.453C80.3023 194.597 79.2417 195.641 79.008 197.351C78.8822 198.179 80.2304 203.525 83.52 215.352C85.4435 222.301 85.9468 223.669 87.6905 226.531C88.8589 228.457 89.1466 229.105 89.2904 230.239L89.3982 231.103L88.6253 231.229C86.54 231.571 86.3243 232.057 86.5041 235.73C87.295 250.797 89.0207 263.11 91.1779 268.96C92.3823 272.273 94.1979 275.207 95.8696 276.521C96.9123 277.349 98.584 278.177 100.058 278.609C101.083 278.915 104.426 278.933 163.244 278.987C209.155 279.023 225.603 278.987 226.305 278.843C227.545 278.573 228.552 277.655 228.857 276.503C229.324 274.757 228.569 262.246 227.689 257.151C226.484 250.221 223.752 243.992 219.923 239.384C216.723 235.532 211.852 231.967 205.578 228.889C200.203 226.261 194.72 224.353 185.589 221.959C184.079 221.581 183.611 219.799 183.449 213.948L183.324 209.808L184.025 209.286C189.238 205.379 193.408 199.313 195.601 192.455L196.446 189.844L197.363 189.646C202.396 188.512 205.704 182.374 204.517 176.415C204.068 174.201 203.331 172.779 201.893 171.357L200.706 170.187L201.102 168.855C202.109 165.578 202.342 163.796 202.342 159.584C202.342 156.11 202.288 155.372 201.929 153.662C201.336 150.943 200.437 148.423 199.161 145.993C197.704 143.185 196.41 141.403 194.163 139.135C189.094 134.022 183 131.124 175.288 130.152C173.868 129.99 169.967 129.936 168.727 130.098ZM156.953 154.688C160.368 157.442 164.682 159.764 169.23 161.258C173.293 162.608 178.416 163.67 178.057 163.076C177.967 162.932 177.391 162.05 176.762 161.114C175.648 159.44 173.706 155.786 173.868 155.642C173.904 155.588 175.001 156.074 176.277 156.704C181.634 159.332 187.907 161.456 192.743 162.266L193.372 162.374L193.786 167.829C194.253 174.309 194.325 174.975 194.577 174.975C194.666 174.975 195.206 174.489 195.745 173.895C196.86 172.635 197.471 172.275 198.388 172.275C200.437 172.275 202.109 174.705 202.378 178.035C202.756 183.04 199.574 187.468 195.583 187.486H194.379L194.073 188.926C193.228 192.887 191.161 197.585 188.806 200.897C185.445 205.614 180.304 209.628 175.324 211.41C173.419 212.094 170.65 212.598 168.296 212.724C161.105 213.084 154.472 210.474 148.827 205.073C144.675 201.095 141.799 196.181 140.163 190.24C139.318 187.162 139.462 187.396 138.275 187.396C136.298 187.396 134.446 186.334 133.188 184.48C130.887 181.096 130.941 176.019 133.314 173.391C134.285 172.311 134.932 172.023 136.028 172.149C137.053 172.257 137.574 172.635 138.599 173.967C139.03 174.543 139.444 174.939 139.534 174.849C139.749 174.633 140.019 173.157 140.235 170.799L140.432 168.765L142.374 166.785C143.452 165.686 144.819 164.174 145.412 163.418C148.09 159.98 150.499 155.264 151.56 151.285L151.955 149.827L153.789 151.717C154.777 152.744 156.216 154.076 156.953 154.688ZM96.0314 185.596C96.2112 185.704 96.4808 186.01 96.6246 186.28C96.7505 186.55 97.3796 190.528 97.9908 195.137C98.8357 201.491 99.1772 203.615 99.4109 203.957C99.8603 204.587 100.885 204.659 101.424 204.119C101.802 203.741 101.802 203.633 101.694 201.275C101.64 199.925 101.532 196.955 101.478 194.651L101.352 190.474L101.928 189.916C103.06 188.782 104.013 189.52 104.3 191.734C104.516 193.571 106.08 208.656 106.08 209.034C106.08 209.232 105.541 209.646 104.534 210.204C102.683 211.248 100.957 212.616 99.9502 213.894C98.9975 215.1 97.9908 217.116 97.9908 217.818C97.9908 218.466 98.62 218.952 99.375 218.862C99.8064 218.808 99.9862 218.592 100.597 217.368C101.838 214.866 103.204 213.552 106.116 212.022L107.554 211.284L110.592 206.73C113.72 202.049 114.115 201.617 115.194 201.617C116.075 201.635 116.812 202.535 116.596 203.363C116.542 203.615 115.554 206.046 114.403 208.782C113.271 211.536 111.922 214.902 111.437 216.288C110.376 219.223 110.376 219.259 108.777 221.959C107.464 224.173 106.907 225.577 106.709 227.215L106.583 228.241L105.379 228.439C104.732 228.547 101.388 229.105 97.9549 229.663L91.7172 230.707L91.5014 229.699C91.2138 228.277 90.7644 227.161 89.9375 225.865C87.7264 222.373 87.6006 221.941 81.9921 201.095L81.0573 197.621L81.3988 197.135C82.1179 196.181 83.2144 196.559 83.9694 198.017C84.1492 198.359 84.9042 200.573 85.6592 202.913C86.9535 206.928 87.0793 207.216 87.6006 207.486C88.05 207.72 88.2298 207.72 88.6792 207.54C88.9668 207.414 89.2724 207.144 89.3623 206.946C89.5061 206.55 89.2185 203.993 88.0141 195.065C87.4209 190.798 87.4029 190.366 87.6545 189.988C88.1938 189.16 89.3982 189.25 89.9735 190.132C90.1173 190.366 90.8723 193.733 91.6632 197.621C92.6699 202.571 93.1912 204.803 93.4069 205.055C94.1439 205.848 95.4742 205.217 95.4742 204.083C95.4742 203.741 95.1146 199.871 94.6652 195.479C94.2158 191.086 93.8563 187.216 93.8563 186.892C93.8563 185.794 95.0427 185.074 96.0314 185.596ZM154.777 212.292C161.033 215.514 168.961 216.09 175.756 213.786C176.726 213.462 178.308 212.796 179.243 212.31C180.178 211.824 181.005 211.41 181.059 211.374C181.13 211.356 181.22 213.012 181.274 215.064C181.364 219.151 181.688 220.915 182.569 222.427C182.982 223.147 183.683 223.831 184.132 223.975C184.456 224.083 183.953 226.315 183.288 227.683C181.256 231.913 176.726 234.974 170.974 236.018C169.122 236.36 164.808 236.306 162.975 235.928C156.251 234.524 151.632 230.977 150.14 226.027C149.636 224.389 149.654 224.083 150.283 223.723C151.38 223.111 152.297 220.987 152.62 218.358C152.728 217.512 152.818 215.586 152.818 214.074C152.818 212.544 152.872 211.338 152.962 211.374C153.034 211.41 153.843 211.824 154.777 212.292Z" fill="#004F9F"/>
</svg>
