<svg width="100" height="100" viewBox="0 0 100 100" fill="none" xmlns="http://www.w3.org/2000/svg">
<path d="M40.9286 10.196C39.3722 10.5814 37.7417 11.4708 36.4966 12.6417C35.2367 13.8127 35.3108 13.6941 29.367 23.8919C27.0844 27.8199 26.7138 28.5165 26.6545 29.1687C26.6101 29.732 26.6545 30.0284 26.8472 30.3249C27.0103 30.562 28.2553 31.4069 29.871 32.3704C31.3829 33.2745 34.3918 35.0829 36.5559 36.4021C40.143 38.581 40.5432 38.7885 41.1657 38.7885C41.9958 38.7885 42.2774 38.5662 42.8555 37.4841C43.3298 36.5948 48.8141 27.2418 49.9554 25.3742C50.3853 24.6775 50.7707 23.9957 50.83 23.8475C50.8893 23.6993 50.993 23.6103 51.0671 23.6548C51.1412 23.7141 51.6007 24.4256 52.0899 25.2704C52.5642 26.1005 53.4091 27.479 53.9575 28.3387L54.9358 29.895L54.6097 30.1174C54.4318 30.2359 53.335 31.0364 52.1936 31.8961C51.0523 32.7558 49.7627 33.7044 49.3329 34.0157C48.5325 34.5789 47.9692 35.32 47.9692 35.7944C47.9692 36.2835 48.3991 37.0098 48.8438 37.2766C49.244 37.5138 52.8458 38.3142 59.679 39.663C61.517 40.0336 64.3184 40.5968 65.9044 40.9229C67.4904 41.249 69.1357 41.5306 69.5359 41.5306C70.3363 41.5306 71.1812 41.1304 71.3443 40.6709C71.3887 40.5375 71.9964 39.0553 72.6931 37.3804C73.3749 35.7054 74.6497 32.6372 75.4945 30.562C76.3543 28.4869 77.4659 25.8485 77.9847 24.7072C79.467 21.4166 80.134 19.712 80.134 19.1784C80.134 18.378 79.7634 17.8444 79.0816 17.6517C78.3998 17.4442 78.459 17.4145 73.2415 20.1715C71.863 20.9126 70.6476 21.5204 70.5438 21.5204C70.4549 21.5204 70.1585 21.135 69.9065 20.6607C69.6397 20.2012 68.6466 18.5114 67.7128 16.9254C65.2819 12.8344 63.9775 11.5893 60.9092 10.4925L59.6049 10.033L50.7114 10.0033C43.315 9.98851 41.6697 10.0182 40.9286 10.196ZM44.2933 13.6052C45.1085 14.0054 45.4346 14.4056 46.5314 16.2584C47.0947 17.2367 47.8951 18.5559 48.2953 19.1784L49.0216 20.3197L47.406 23.1064C46.5166 24.6331 45.1381 27.0195 44.3377 28.4128C43.5373 29.7913 42.3663 31.8071 41.729 32.8743L40.558 34.8161L35.548 31.8219C32.1981 29.8209 30.5528 28.7537 30.5677 28.6055C30.5825 28.4721 31.7534 26.4118 33.1912 24.0105C34.6142 21.6241 36.1261 19.045 36.5559 18.2742C37.9048 15.8434 39.0016 14.5686 40.3653 13.8868C41.7734 13.1902 43.2705 13.0864 44.2933 13.6052ZM59.1157 13.3828C60.2422 13.62 61.3243 14.1684 62.1692 14.9244C62.9547 15.6359 63.7403 16.8216 66.6604 21.7279C67.6683 23.4325 68.6614 24.9295 68.8689 25.0629C69.0764 25.2111 69.5211 25.3001 69.9806 25.2853C70.618 25.2853 71.0478 25.1074 72.9896 24.0846C74.2198 23.4325 75.2426 22.9137 75.2426 22.9433C75.2426 22.9581 75.1092 23.2101 74.9609 23.4769C74.7979 23.7437 73.953 25.7003 73.0933 27.8199C69.7583 35.9426 68.9875 37.7509 68.8689 37.8843C68.6614 38.1067 53.0978 35.2163 53.246 34.9939C53.2757 34.9347 53.7945 34.5937 54.3874 34.238C55.8992 33.319 58.0337 31.6293 58.3598 31.0956C58.7007 30.5472 58.7303 29.7023 58.4339 29.2873C58.1374 28.8871 55.5435 24.6034 52.0751 18.8523C50.5335 16.288 49.1402 13.9609 48.9772 13.6941L48.6807 13.2198H53.5128C56.4921 13.2198 58.6266 13.2791 59.1157 13.3828Z" fill="#0BBBEF"/>
<path d="M29.5153 38.2845C28.3443 38.6402 17.3609 40.6412 12.84 41.3083C10.9131 41.6047 10.5129 41.7529 10.2313 42.3014C9.96449 42.8201 9.92002 43.7391 10.1424 44.1542C10.2313 44.3172 11.8025 45.2362 13.6405 46.2145C15.4784 47.1779 16.9903 48.0376 16.9903 48.1117C16.9903 48.2303 15.2709 51.2541 13.1661 54.8411C12.0989 56.6643 11.7877 57.687 11.6839 59.6732C11.5653 62.2375 11.8618 63.2899 13.3885 65.958C14.0851 67.1586 15.8787 70.2861 17.3905 72.9245C20.3254 78.0531 20.9628 78.9128 22.7118 80.1578C23.7494 80.899 24.9796 81.4919 26.0765 81.7883C27.2327 82.0996 44.3378 82.0848 45.0789 81.7883C46.0868 81.3585 46.0572 81.6994 46.072 72.9838C46.0868 65.7504 46.072 65.0834 45.8349 64.7277C45.3013 63.9125 45.2568 63.9125 36.4819 63.9125C32.0351 63.9125 28.4036 63.868 28.4036 63.8235C28.4036 63.7791 29.0706 62.6229 29.8711 61.2592C30.6863 59.8956 31.4571 58.5467 31.5905 58.2651L31.8276 57.7611L33.3395 58.2503C34.1696 58.5171 35.7852 59.11 36.9266 59.5695C39.4019 60.5626 40.0245 60.6367 40.7211 59.9697C41.4474 59.2879 41.314 58.8135 39.0758 53.7591C37.9938 51.3134 36.4819 47.8746 35.7259 46.0959C33.4433 40.8043 32.3761 38.6847 31.8573 38.3734C31.3533 38.1066 30.2564 38.0473 29.5153 38.2845ZM30.6122 42.6867C30.8938 43.3093 31.8721 45.5623 32.8059 47.6819C33.7397 49.8015 34.8218 52.262 35.2071 53.1662C35.6074 54.0555 36.0669 55.0783 36.2299 55.4192C36.4078 55.7601 36.556 56.0862 36.556 56.1307C36.556 56.1751 36.304 56.0862 36.0076 55.938C35.6963 55.7749 35.1775 55.5674 34.8514 55.4637C34.5253 55.3599 33.6656 54.9745 32.9393 54.6188C30.5974 53.4923 30.4491 53.5812 28.2554 57.4647C27.7959 58.2799 26.0913 61.2444 24.4757 64.0607C22.8452 66.8769 21.2592 69.6636 20.9479 70.2565C20.6367 70.8494 20.355 71.3237 20.3254 71.294C20.1031 71.042 15.434 62.7267 15.2561 62.2523C15.1079 61.8373 15.0189 61.0962 15.0041 60.1327C14.9893 58.2799 14.767 58.7691 19.3471 50.6464C21.1406 47.4596 21.2296 47.0594 20.2661 46.2441C19.94 45.9773 19.021 45.4141 18.2058 45.0139C17.3905 44.5988 16.7087 44.2283 16.7087 44.1838C16.6939 44.1393 17.183 44.0059 17.7759 43.917C18.7542 43.7391 29.0262 41.7677 30.0341 41.5454C30.0786 41.5454 30.3306 42.0494 30.6122 42.6867ZM39.4167 67.3216H42.7814V72.9541C42.7814 76.052 42.7666 78.5867 42.7518 78.6015C42.7221 78.6015 39.3278 78.646 35.1923 78.6904C29.9452 78.7349 27.4402 78.7052 26.9066 78.6015C24.0162 77.9789 22.193 75.5481 22.9786 73.3543C23.1861 72.7911 24.8462 69.8266 25.9431 68.0776L26.536 67.1289L31.2792 67.2179C33.9028 67.2771 37.5491 67.3216 39.4167 67.3216Z" fill="#0BBBEF"/>
<path d="M79.689 38.9071C79.4074 39.0108 77.8658 39.915 76.2798 40.8933C68.9724 45.3993 66.5415 46.926 66.245 47.2076C66.0672 47.3707 65.8448 47.7264 65.7411 48.0081C65.5335 48.6602 65.5928 48.7936 68.6611 53.7592C69.9803 55.8788 71.759 58.7691 72.6335 60.1773C73.508 61.6002 74.264 62.8453 74.3084 62.9639C74.3677 63.1418 73.7748 63.1714 70.5139 63.1714C68.3795 63.1714 66.6452 63.1418 66.6452 63.1121C66.6452 63.0825 66.5118 61.9263 66.3636 60.5478C66.2006 59.1842 66.0227 57.4351 65.9634 56.6792C65.8448 55.108 65.5632 54.5744 64.6442 54.2779C63.5029 53.9074 63.2064 54.1445 60.8348 57.3165C59.9899 58.4579 58.2261 60.7553 56.9217 62.4303C52.1192 68.5964 50.2664 71.0421 49.9848 71.5609C49.5994 72.2872 49.7624 72.8949 50.6073 73.9621C51.3929 74.9404 55.3357 79.6984 57.8259 82.6481C58.73 83.7153 60.3901 85.746 61.5018 87.1393C62.6283 88.5474 63.6807 89.7628 63.829 89.8518C63.9772 89.9259 64.407 90 64.7776 90C65.3112 90 65.5484 89.9111 65.9041 89.585L66.3636 89.1848L66.6452 85.2568C66.8083 83.0927 66.9417 81.1807 66.9417 81.0028V80.6915L71.3588 80.6322L75.761 80.5878L77.0358 80.1283C79.3036 79.3279 81.1712 77.816 82.2978 75.889C82.5497 75.4592 83.1575 74.4068 83.6466 73.5471C84.1357 72.6874 85.5735 70.1676 86.8631 67.9294C89.7683 62.875 90.1537 62.0894 90.5242 60.6664C91.0282 58.6802 90.8651 55.9677 90.1388 54.2038C89.872 53.5813 88.5825 51.3283 85.0992 45.4586C83.943 43.502 82.698 41.3824 82.357 40.7302C82.0013 40.0929 81.5715 39.411 81.4084 39.2184C81.023 38.7737 80.356 38.6551 79.689 38.9071ZM80.0003 43.4872C80.3115 44.0949 82.5053 47.8154 85.3215 52.4993C87.0409 55.3452 87.204 55.7009 87.4115 56.857C87.5597 57.6575 87.5597 58.0873 87.4263 58.9025C87.0854 60.8739 86.3443 61.9708 84.9065 62.6823C84.0913 63.0825 83.9727 63.0973 81.2454 63.1418L78.4143 63.201L76.3984 59.9549C75.2867 58.1762 73.76 55.6861 72.9892 54.4262C72.2185 53.1663 71.1364 51.4172 70.6028 50.5575L69.6245 48.9715L73.8489 46.4072C76.1761 44.9843 78.3846 43.6206 78.77 43.3538C79.1554 43.1018 79.5111 42.8943 79.5704 42.8795C79.6297 42.8647 79.8224 43.1463 80.0003 43.4872ZM63.3102 63.0528C63.4288 64.209 63.6214 65.2762 63.7548 65.5282C64.2292 66.462 63.9031 66.4323 74.3529 66.4323C79.5704 66.4323 83.8393 66.4768 83.8393 66.5213C83.8393 66.5954 81.9568 69.8711 79.9706 73.2655C78.6959 75.4444 77.6731 76.393 75.8944 77.0452C75.2571 77.2824 74.4863 77.3268 69.9803 77.4009C65.2519 77.475 64.7628 77.5047 64.3922 77.7567C63.829 78.1272 63.6956 78.7201 63.577 81.6994L63.4584 84.2785L60.8645 81.1214C59.4415 79.3871 57.3071 76.7932 56.1213 75.3703C54.9355 73.9473 53.8831 72.6578 53.7793 72.5095C53.6015 72.2576 53.9275 71.7981 56.8179 68.0332C58.5966 65.7209 60.7162 62.9491 61.5315 61.867L63.0137 59.9105L63.0582 60.4737C63.0878 60.7702 63.1916 61.9411 63.3102 63.0528Z" fill="#0BBBEF"/>
</svg>
