<svg width="75" height="75" viewBox="0 0 75 75" fill="none" xmlns="http://www.w3.org/2000/svg">
<path d="M33.4815 8.14508C32.7802 8.454 32.3043 9.03844 32.154 9.80656C32.1039 10.0403 32.0288 10.9587 31.9787 11.8521C31.9286 12.7454 31.8702 13.7473 31.8451 14.073L31.795 14.6657L31.1104 14.8077C29.7996 15.0916 28.088 15.843 26.4933 16.8365L25.8838 17.2122L24.9153 16.3523C22.0599 13.8141 21.8345 13.6472 20.9996 13.6472C20.6072 13.6472 20.4068 13.7056 20.0728 13.8893C19.4968 14.2065 13.9613 19.7587 13.7359 20.243C13.5605 20.627 13.4854 21.2365 13.5605 21.654C13.6273 22.0213 13.9613 22.4471 15.6478 24.3758L16.9753 25.8953L16.6247 26.5299C15.8231 27.991 15.1385 29.619 14.6543 31.2304L14.4455 31.9484L13.2099 32.0069C11.9408 32.0653 10.296 32.1906 9.75332 32.2741C9.57799 32.2991 9.21897 32.4661 8.94345 32.6414C8.55104 32.8919 8.40911 33.0505 8.22543 33.4262L8 33.8938L8.00835 38.0767C8.02505 42.6437 8.0167 42.5351 8.51765 43.1112C9.06869 43.7291 9.43605 43.8209 12.5837 44.038C13.5605 44.1048 14.3954 44.1632 14.4372 44.1632C14.4873 44.1632 14.5624 44.3219 14.6125 44.5139C15.0049 46.1002 15.7313 47.8619 16.6831 49.5484L17.0087 50.1329L15.5142 51.8862C13.7108 54.0068 13.5271 54.2824 13.5271 54.9837C13.5271 55.8938 13.6273 56.019 16.8918 59.2084C20.0394 62.2808 20.2482 62.4478 21.0163 62.4478C21.7009 62.4478 22.2436 62.1055 24.0053 60.5609C24.8819 59.8011 25.6501 59.1249 25.7169 59.0664C25.8254 58.9746 25.9256 59.008 26.3848 59.2835C27.537 59.9932 29.9165 61.0034 31.2106 61.329C31.7867 61.4793 31.8117 61.4877 31.8117 61.7381C31.8117 62.2307 32.0622 65.3533 32.1457 65.9628C32.2542 66.6975 32.4796 67.2068 32.8387 67.5074C33.4398 68.0083 33.3146 68 37.8231 68H41.9559L42.4402 67.7662C42.9662 67.5074 43.2333 67.1818 43.4588 66.5389C43.5506 66.2801 43.6341 65.4535 43.7259 63.8672C43.7927 62.6065 43.8762 61.5461 43.9096 61.5127C43.9347 61.4793 44.4189 61.3207 44.9866 61.1537C46.598 60.6945 48.2595 59.9765 49.3282 59.2835L49.8542 58.9412L51.6075 60.419C53.7866 62.2641 53.9703 62.3894 54.6048 62.4311C55.4481 62.4896 55.5733 62.3977 58.8378 59.2084C62.1024 56.019 62.2025 55.8938 62.2025 54.9837C62.2025 54.3408 62.0189 53.9484 61.4344 53.3055C61.184 53.03 60.6162 52.3537 60.157 51.8027C59.7062 51.2516 59.1885 50.6422 59.0132 50.4418L58.6876 50.0828L59.2637 48.9807C60.0067 47.578 60.4325 46.5427 60.8166 45.2486C60.9836 44.6809 61.1255 44.205 61.1422 44.1966C61.1589 44.1799 62.1274 44.1131 63.2963 44.038C66.135 43.871 66.6276 43.7458 67.2705 43.0611C67.7965 42.4851 67.8048 42.4099 67.7297 37.8596L67.6712 33.8437L67.4541 33.4346C67.212 32.9587 66.686 32.5162 66.2018 32.391C65.7259 32.2574 64.8242 32.1655 62.9122 32.0486C61.9938 31.9985 61.2173 31.9234 61.184 31.8984C61.1506 31.865 61.0086 31.4392 60.8667 30.9549C60.5244 29.7276 60.0485 28.5504 59.3137 27.1393C58.7711 26.0957 58.7043 25.9204 58.8044 25.8035C59.247 25.2775 60.7748 23.5325 61.3426 22.9063C61.7183 22.4889 62.069 22.0464 62.1191 21.9211C62.2777 21.4953 62.2192 20.6938 61.9938 20.2346C61.7266 19.6919 56.1661 14.1398 55.6067 13.8475C55.0473 13.5637 54.2876 13.572 53.7282 13.8809C53.5028 14.0062 52.551 14.7826 51.6242 15.6092C50.6974 16.4358 49.921 17.112 49.8959 17.112C49.8709 17.112 49.6288 16.9701 49.3699 16.8031C48.2094 16.0601 45.3457 14.8995 44.2603 14.7242C44.0682 14.6908 43.918 14.6491 43.918 14.6157C43.918 14.432 43.5756 10.75 43.5005 10.1155C43.3753 8.96329 43.0663 8.48739 42.2231 8.13673C41.7722 7.95305 33.924 7.95305 33.4815 8.14508ZM41.1126 9.83995C41.4216 9.8817 41.6971 9.93179 41.7054 9.94849C41.7221 9.96519 41.8307 11.1424 41.9476 12.5618C42.0728 13.9895 42.1897 15.2752 42.2147 15.4172C42.2899 15.9098 42.5403 16.0935 43.417 16.3105C44.803 16.6528 47.6083 17.8217 48.9107 18.5982C49.5286 18.9739 50.0212 19.0908 50.3802 18.9489C50.5138 18.8988 51.2568 18.306 52.0417 17.6297C54.3043 15.6676 54.5881 15.4422 54.7384 15.4422C54.8804 15.4422 60.2155 20.6771 60.3741 20.9777C60.4743 21.1447 60.3741 21.2699 58.2534 23.783C56.8842 25.4111 56.7589 25.6365 56.9342 26.2794C56.9843 26.4881 57.168 26.8805 57.3267 27.1393C58.1365 28.4752 59.1384 30.8464 59.4139 32.0904C59.5809 32.8001 59.7062 33.0756 59.99 33.2927C60.2989 33.5348 60.7832 33.6183 62.7953 33.7686C63.7805 33.8354 64.8659 33.9355 65.2249 33.9856L65.8595 34.0775L65.9096 34.9291C65.9346 35.3883 65.968 37.15 65.9931 38.8365L66.0264 41.909L65.7259 41.9841C65.5505 42.0342 64.7824 42.126 63.9976 42.2012C63.2211 42.268 62.1274 42.3682 61.5764 42.4183C60.5745 42.5101 60.1236 42.6353 59.8481 42.8858C59.7646 42.961 59.5225 43.5704 59.3137 44.2384C58.6542 46.3257 58.1031 47.578 57.1597 49.1811C56.9008 49.6069 56.6921 50.0243 56.6921 50.1078C56.6921 50.4167 56.9008 50.7089 58.195 52.2285C58.938 53.0968 59.7729 54.082 60.0485 54.4243L60.5494 55.0505L59.606 55.9689C59.08 56.4782 57.7859 57.7473 56.7172 58.7992C55.2394 60.2603 54.7551 60.6945 54.6549 60.6361C54.5881 60.5943 53.6781 59.8345 52.6344 58.9495C51.5992 58.0562 50.6056 57.2547 50.447 57.1712C49.9293 56.9123 49.6288 56.9708 48.7521 57.4884C47.1741 58.4402 45.7798 59.0163 43.7009 59.6091C42.4068 59.9765 42.2314 60.2687 42.0477 62.4061C41.9726 63.2326 41.8808 64.4099 41.839 65.0194C41.7973 65.6288 41.7472 66.1548 41.7138 66.1799C41.6303 66.2634 34.7256 66.3135 34.3582 66.23C34.0326 66.1548 34.0242 66.1465 33.924 65.6622C33.8656 65.3867 33.7821 64.5435 33.732 63.7837C33.54 60.9116 33.5066 60.5609 33.3647 60.2937C33.181 59.9431 32.9722 59.8429 31.6447 59.5006C29.8998 59.0497 29.3905 58.8326 26.4182 57.263L25.7335 56.904L25.4163 57.0459C25.0406 57.2129 24.4227 57.7306 22.9032 59.1332C22.3188 59.6759 21.6425 60.252 21.4004 60.419L20.9662 60.7196L18.0774 57.8892C16.4911 56.3363 15.1969 55.0505 15.1969 55.0338C15.1969 54.942 16.8167 52.9966 17.6766 52.0532C19.2546 50.3082 19.2296 50.4585 18.3195 48.8638C17.2675 47.0103 16.608 45.4072 16.2823 43.9295C16.0068 42.6854 15.773 42.5101 14.1366 42.4099C11.6402 42.2429 10.3795 42.1427 10.1207 42.0926L9.85351 42.0342L9.82846 38.1352C9.81176 35.9894 9.82011 34.2027 9.84516 34.1526C9.9203 34.0357 10.9389 33.9105 13.1681 33.7352C15.8816 33.5264 15.8315 33.5515 16.3575 31.723C16.8751 29.9363 17.4596 28.5837 18.3279 27.1477C18.8873 26.2293 18.9541 25.9538 18.7286 25.4528C18.6368 25.2524 17.8269 24.2005 16.9252 23.1234C16.0235 22.0464 15.2804 21.1363 15.2804 21.1113C15.2804 20.9443 19.9893 16.1853 20.7575 15.5842C20.9245 15.4589 21.0079 15.4422 21.1499 15.5007C21.3169 15.5842 24.0136 17.8551 24.8986 18.6733C25.6083 19.3246 25.8838 19.3162 26.9275 18.6149C27.5787 18.1724 29.1984 17.3458 30.1001 16.9868C30.4258 16.8616 31.1104 16.6528 31.628 16.5193C33.014 16.1769 33.3229 15.9432 33.4732 15.1417C33.5233 14.9079 33.6318 13.7223 33.732 12.5117C33.8322 11.3011 33.924 10.1906 33.9491 10.057L33.9825 9.80656L37.2637 9.78151C39.1005 9.76481 40.787 9.78986 41.1126 9.83995Z" fill="#0BBBEF"/>
<path d="M35.6525 21.5793C31.8787 22.1136 28.8062 23.6749 26.1762 26.3884C24.8738 27.7326 24.2058 28.6427 23.3125 30.2707C22.3774 31.974 21.6761 34.0863 21.4673 35.7728C21.4172 36.1819 21.3755 37.1588 21.3755 37.9436C21.3838 41.7508 22.4525 45.0403 24.6567 47.9709C25.4081 48.9728 26.8525 50.4422 27.8461 51.2187C30.6013 53.3728 34.3083 54.6836 37.6563 54.6836C42.0396 54.6752 46.2976 52.9303 49.3868 49.8661C51.3489 47.9291 52.7181 45.725 53.553 43.1618C54.1208 41.4168 54.2794 40.5235 54.3295 38.7785C54.4297 35.6225 53.9371 33.3933 52.5428 30.5964C51.616 28.7512 50.7811 27.5823 49.32 26.1129C47.0407 23.8169 44.0517 22.2639 40.7455 21.6628C39.6851 21.4708 36.7546 21.4207 35.6525 21.5793ZM39.9106 23.2992C42.3902 23.6415 44.9785 24.777 47.0157 26.4301C47.7086 26.9979 49.0278 28.3588 49.5371 29.0434C50.539 30.3793 51.424 32.0825 51.8832 33.5436C52.0001 33.9277 52.2005 34.7542 52.3257 35.3804C52.5177 36.3823 52.5511 36.733 52.5511 38.1941C52.5511 39.7136 52.5344 39.9557 52.3257 40.8908C51.5576 44.314 50.0381 46.9523 47.525 49.1982C45.6548 50.8764 43.2586 52.0536 40.5785 52.6047C39.7436 52.78 39.3846 52.805 37.865 52.805C35.8863 52.805 34.9929 52.6715 33.3314 52.1371C32.1626 51.753 30.2924 50.8179 29.3489 50.1333C26.5519 48.1212 24.4396 45.0821 23.6298 41.9094C23.1455 40.0058 23.0036 37.8434 23.2457 36.1485C24.1724 29.8449 28.7144 24.8772 34.8176 23.5079C36.5041 23.1322 38.1739 23.0654 39.9106 23.2992Z" fill="#0BBBEF"/>
</svg>
