<svg width="25" height="25" viewBox="0 0 25 25" fill="none" xmlns="http://www.w3.org/2000/svg">
<path d="M21.6797 14.8438C21.6797 14.9992 21.618 15.1482 21.5081 15.2581C21.3982 15.368 21.2492 15.4297 21.0938 15.4297H18.5547V17.3828H20.3125C20.4679 17.3828 20.6169 17.4445 20.7268 17.5544C20.8367 17.6643 20.8984 17.8133 20.8984 17.9688C20.8984 18.1242 20.8367 18.2732 20.7268 18.3831C20.6169 18.493 20.4679 18.5547 20.3125 18.5547H18.5547V20.3125C18.5547 20.4679 18.493 20.6169 18.3831 20.7268C18.2732 20.8367 18.1242 20.8984 17.9688 20.8984C17.8133 20.8984 17.6643 20.8367 17.5544 20.7268C17.4445 20.6169 17.3828 20.4679 17.3828 20.3125V14.8438C17.3828 14.6883 17.4445 14.5393 17.5544 14.4294C17.6643 14.3195 17.8133 14.2578 17.9688 14.2578H21.0938C21.2492 14.2578 21.3982 14.3195 21.5081 14.4294C21.618 14.5393 21.6797 14.6883 21.6797 14.8438ZM8.78906 16.7969C8.78906 17.4703 8.52155 18.1161 8.04539 18.5923C7.56922 19.0684 6.9234 19.3359 6.25 19.3359H5.27344V20.3125C5.27344 20.4679 5.21171 20.6169 5.10182 20.7268C4.99194 20.8367 4.8429 20.8984 4.6875 20.8984C4.5321 20.8984 4.38306 20.8367 4.27318 20.7268C4.16329 20.6169 4.10156 20.4679 4.10156 20.3125V14.8438C4.10156 14.6883 4.16329 14.5393 4.27318 14.4294C4.38306 14.3195 4.5321 14.2578 4.6875 14.2578H6.25C6.9234 14.2578 7.56922 14.5253 8.04539 15.0015C8.52155 15.4777 8.78906 16.1235 8.78906 16.7969ZM7.61719 16.7969C7.61719 16.4343 7.47315 16.0865 7.21675 15.8301C6.96035 15.5737 6.6126 15.4297 6.25 15.4297H5.27344V18.1641H6.25C6.6126 18.1641 6.96035 18.02 7.21675 17.7636C7.47315 17.5072 7.61719 17.1595 7.61719 16.7969ZM15.8203 17.5781C15.8203 18.4587 15.4705 19.3033 14.8478 19.9259C14.2251 20.5486 13.3806 20.8984 12.5 20.8984H10.9375C10.7821 20.8984 10.6331 20.8367 10.5232 20.7268C10.4133 20.6169 10.3516 20.4679 10.3516 20.3125V14.8438C10.3516 14.6883 10.4133 14.5393 10.5232 14.4294C10.6331 14.3195 10.7821 14.2578 10.9375 14.2578H12.5C13.3806 14.2578 14.2251 14.6076 14.8478 15.2303C15.4705 15.853 15.8203 16.6975 15.8203 17.5781ZM14.6484 17.5781C14.6484 17.0083 14.4221 16.4619 14.0192 16.059C13.6163 15.656 13.0698 15.4297 12.5 15.4297H11.5234V19.7266H12.5C13.0698 19.7266 13.6163 19.5002 14.0192 19.0973C14.4221 18.6944 14.6484 18.1479 14.6484 17.5781ZM4.10156 10.9375V3.90625C4.10156 3.54365 4.24561 3.1959 4.502 2.9395C4.7584 2.68311 5.10615 2.53906 5.46875 2.53906H14.8438C14.9208 2.539 14.9972 2.55415 15.0684 2.58365C15.1396 2.61314 15.2043 2.6564 15.2588 2.71094L20.7275 8.17969C20.8371 8.28963 20.8986 8.43854 20.8984 8.59375V10.9375C20.8984 11.0929 20.8367 11.2419 20.7268 11.3518C20.6169 11.4617 20.4679 11.5234 20.3125 11.5234C20.1571 11.5234 20.0081 11.4617 19.8982 11.3518C19.7883 11.2419 19.7266 11.0929 19.7266 10.9375V9.17969H14.8438C14.6883 9.17969 14.5393 9.11795 14.4294 9.00807C14.3195 8.89819 14.2578 8.74915 14.2578 8.59375V3.71094H5.46875C5.41695 3.71094 5.36727 3.73152 5.33064 3.76814C5.29401 3.80477 5.27344 3.85445 5.27344 3.90625V10.9375C5.27344 11.0929 5.21171 11.2419 5.10182 11.3518C4.99194 11.4617 4.8429 11.5234 4.6875 11.5234C4.5321 11.5234 4.38306 11.4617 4.27318 11.3518C4.16329 11.2419 4.10156 11.0929 4.10156 10.9375ZM15.4297 8.00781H18.8984L15.4297 4.53906V8.00781Z" fill="currentColor"/>
</svg>
