<svg width="21" height="20" viewBox="0 0 21 20" fill="none" xmlns="http://www.w3.org/2000/svg">
<path d="M10.5186 0.890625C10.2881 1.04297 1.88187 9.50391 1.66312 9.80469C1.10452 10.5742 0.776396 11.3281 0.588896 12.2852C0.49124 12.7852 0.495146 13.8281 0.592803 14.3555C1.03812 16.7461 2.83108 18.5781 5.22562 19.0898C5.69827 19.1914 7.05374 19.1914 7.5303 19.0898C8.33108 18.918 9.1514 18.5625 9.80765 18.1016C10.0498 17.9297 11.2998 16.7031 14.8623 13.1445C18.9912 9.01953 19.6201 8.375 19.8116 8.08203C20.1553 7.54688 20.335 7.07812 20.4444 6.4375C20.6045 5.47266 20.3662 4.37109 19.8116 3.52734C19.4639 3.00391 18.7842 2.40234 18.2139 2.12109C16.8467 1.4375 15.1553 1.58984 13.9405 2.50391C13.5303 2.8125 4.48733 11.875 4.35452 12.1133C4.29983 12.2109 4.20608 12.4336 4.14749 12.6016C4.01858 12.9883 4.00296 13.5547 4.10843 13.9258C4.47171 15.1758 5.72171 15.9023 6.95999 15.5859C7.60843 15.4219 7.3389 15.668 12.0342 10.9805C15.4678 7.55469 16.3311 6.67188 16.3662 6.55469C16.4951 6.125 16.0928 5.69922 15.667 5.81641C15.5459 5.85156 14.7764 6.60156 11.2998 10.0703C7.90921 13.457 7.04202 14.3047 6.88577 14.3789C6.61233 14.5117 6.14358 14.5117 5.88577 14.3828C5.5264 14.207 5.27249 13.8555 5.20608 13.4492C5.17093 13.2344 5.27249 12.8516 5.41702 12.6445C5.47952 12.5547 7.56937 10.4492 10.0576 7.96875C14.9444 3.09375 14.7491 3.27344 15.4092 3.03516C16.8819 2.50391 18.5225 3.25391 19.1201 4.72656C19.4834 5.62891 19.3389 6.75781 18.7608 7.53516C18.6905 7.63281 16.5303 9.80859 13.9678 12.3672C9.00687 17.3242 9.0889 17.2461 8.37405 17.582C7.67874 17.9062 7.0303 18.0273 6.16702 17.9961C5.24905 17.9648 4.51858 17.7266 3.75296 17.2148C3.33108 16.9375 2.76858 16.3828 2.50296 15.9961C1.57718 14.6289 1.42093 12.9219 2.08108 11.3906C2.1553 11.2227 2.33499 10.9062 2.47562 10.6875C2.7139 10.3281 3.09671 9.92969 7.02249 5.99609C9.38186 3.63281 11.3311 1.66016 11.3545 1.61328C11.4561 1.41016 11.3858 1.125 11.1866 0.941406C11.0459 0.808594 10.6866 0.78125 10.5186 0.890625Z" fill="currentColor"/>
</svg>
